<svg width="100" height="100" viewBox="0 0 100 100" xmlns="http://www.w3.org/2000/svg">
  <!-- Фон -->
  <circle cx="50" cy="50" r="50" fill="#ec4899"/>
  
  <!-- Волосы -->
  <path d="M30 25 Q50 15 70 25 Q75 35 70 45 Q65 50 60 45 Q55 40 50 45 Q45 40 40 45 Q35 50 30 45 Q25 35 30 25" fill="#fbbf24"/>
  
  <!-- Лицо -->
  <circle cx="50" cy="50" r="25" fill="#fef3c7"/>
  
  <!-- Глаза -->
  <circle cx="42" cy="45" r="3" fill="#1f2937"/>
  <circle cx="58" cy="45" r="3" fill="#1f2937"/>
  
  <!-- Улыбка -->
  <path d="M40 55 Q50 65 60 55" stroke="#1f2937" stroke-width="2" fill="none"/>
  
  <!-- Крылья -->
  <path d="M25 40 Q15 30 20 50 Q25 60 35 50" fill="#fbbf24" opacity="0.7"/>
  <path d="M75 40 Q85 30 80 50 Q75 60 65 50" fill="#fbbf24" opacity="0.7"/>
  
  <!-- Корона -->
  <path d="M40 30 L45 20 L50 25 L55 20 L60 30 L55 35 L45 35 Z" fill="#fbbf24"/>
</svg>
