<svg width="100" height="100" viewBox="0 0 100 100" xmlns="http://www.w3.org/2000/svg">
  <!-- Фон -->
  <circle cx="50" cy="50" r="50" fill="#3b82f6"/>
  
  <!-- Волосы -->
  <path d="M30 25 Q50 15 70 25 Q75 35 70 45 Q65 50 60 45 Q55 40 50 45 Q45 40 40 45 Q35 50 30 45 Q25 35 30 25" fill="#1e40af"/>
  
  <!-- Лицо -->
  <circle cx="50" cy="50" r="25" fill="#fef3c7"/>
  
  <!-- Глаза -->
  <circle cx="42" cy="45" r="3" fill="#1f2937"/>
  <circle cx="58" cy="45" r="3" fill="#1f2937"/>
  
  <!-- Улыбка -->
  <path d="M40 55 Q50 65 60 55" stroke="#1f2937" stroke-width="2" fill="none"/>
  
  <!-- Корона -->
  <path d="M35 30 L40 20 L45 25 L50 15 L55 25 L60 20 L65 30 L60 35 L40 35 Z" fill="#fbbf24"/>
  <circle cx="50" cy="20" r="3" fill="#3b82f6"/>
</svg>
