<svg width="100" height="100" viewBox="0 0 100 100" xmlns="http://www.w3.org/2000/svg">
  <!-- Фон -->
  <circle cx="50" cy="50" r="50" fill="#fbbf24"/>
  
  <!-- Волосы -->
  <path d="M30 25 Q50 15 70 25 Q75 35 70 45 Q65 50 60 45 Q55 40 50 45 Q45 40 40 45 Q35 50 30 45 Q25 35 30 25" fill="#f97316"/>
  
  <!-- Лицо -->
  <circle cx="50" cy="50" r="25" fill="#fef3c7"/>
  
  <!-- Глаза -->
  <circle cx="42" cy="45" r="3" fill="#1f2937"/>
  <circle cx="58" cy="45" r="3" fill="#1f2937"/>
  
  <!-- Улыбка -->
  <path d="M40 55 Q50 65 60 55" stroke="#1f2937" stroke-width="2" fill="none"/>
  
  <!-- Румяна -->
  <circle cx="38" cy="52" r="2" fill="#fbbf24"/>
  <circle cx="62" cy="52" r="2" fill="#fbbf24"/>
  
  <!-- Корона -->
  <path d="M35 30 L40 20 L45 25 L50 15 L55 25 L60 20 L65 30 L60 35 L40 35 Z" fill="#fbbf24"/>
  <circle cx="50" cy="20" r="3" fill="#ec4899"/>
  
  <!-- Звезды -->
  <path d="M20 20 L22 25 L27 25 L23 28 L25 33 L20 30 L15 33 L17 28 L13 25 L18 25 Z" fill="#fbbf24"/>
  <path d="M80 20 L82 25 L87 25 L83 28 L85 33 L80 30 L75 33 L77 28 L73 25 L78 25 Z" fill="#fbbf24"/>
</svg>
